#!OML:ASF X:\für Bonn\!DataBase\2005_08_12_Daniel\c3d\Daniel.ASF
:FULLY-SPECIFIED
:DEGREES
144
root 0.211263 16.7648 -1.49968 24.3025 -83.9197 -37.0109
lowerback 30.1929 -3.92241 8.32706
upperback 0.0116048 -2.62341 -1.56796
thorax -16.3678 -1.93008 -5.15487
lowerneck 3.67193 1.30938 -2.65423
upperneck 5.99626 1.51917 1.49682
head 1.20387 0.676392 0.901377
rclavicle 8.79622e-015 -1.51076e-014
rhumerus 52.9524 4.30244 -91.9823
rradius 8.09655
rwrist 53.6727
rhand -18.8692 5.82229
rfingers 7.12502
rthumb 7.43139 -24.0272
lclavicle 8.79622e-015 -1.51076e-014
lhumerus 53.4759 6.42192 96.7915
lradius 10.7284
lwrist -71.7896
lhand -16.3441 0.202671
lfingers 7.12502
lthumb 9.86823 29.9514
rfemur -0.470834 5.12466 23.7868
rtibia 35.5294
rfoot -36.0486 -5.83448
rtoes -15.145
lfemur -13.6906 -7.48514 -10.0749
ltibia 47.3
lfoot -32.6136 -3.36031
ltoes -2.7056
145
root 0.193077 16.8088 -1.51526 22.5725 -83.8871 -35.1597
lowerback 29.555 -3.8678 8.24374
upperback -0.0244113 -2.64182 -1.62999
thorax -16.1212 -1.92718 -5.19285
lowerneck 3.59645 1.31392 -2.52028
upperneck 6.39192 1.52533 1.38295
head 1.34222 0.675679 0.847232
rclavicle -3.46382e-014 7.15625e-015
rhumerus 52.624 4.15819 -91.9654
rradius 8.26077
rwrist 53.4214
rhand -18.7313 5.98968
rfingers 7.12502
rthumb 7.56452 -23.8551
lclavicle -3.46382e-014 7.15625e-015
lhumerus 53.0872 5.91019 95.9983
lradius 10.8826
lwrist -70.6809
lhand -16.327 -0.112352
lfingers 7.12502
lthumb 9.88471 29.6356
rfemur 0.894726 5.90871 24.0092
rtibia 34.0339
rfoot -36.5918 -6.34255
rtoes -15.0477
lfemur -13.23 -8.02166 -10.3027
ltibia 46.4667
lfoot -32.6332 -3.13159
ltoes -2.11286
146
root 0.171528 16.8487 -1.53168 20.8452 -83.8812 -33.3021
lowerback 28.8813 -3.78935 8.12042
upperback -0.0572736 -2.64356 -1.68756
thorax -15.8462 -1.913 -5.21218
lowerneck 3.54226 1.31038 -2.40362
upperneck 6.74445 1.52062 1.27087
head 1.4642 0.66949 0.796056
rclavicle -2.66123e-014 7.15625e-015
rhumerus 52.3811 4.05116 -91.9626
rradius 8.38409
rwrist 53.2027
rhand -18.5526 6.12672
rfingers 7.12502
rthumb 7.73701 -23.7117
lclavicle -2.66123e-014 7.15625e-015
lhumerus 52.7859 5.47114 95.3381
lradius 11.0295
lwrist -69.7141
lhand -16.281 -0.459445
lfingers 7.12502
lthumb 9.92902 29.2864
rfemur 2.21767 6.86978 24.291
rtibia 32.5917
rfoot -37.1271 -7.19662
rtoes -15.1515
lfemur -12.7924 -8.48231 -10.5041
ltibia 45.6897
lfoot -32.659 -2.86526
ltoes -1.84101
147
root 0.149144 16.8817 -1.54676 18.8579 -83.8836 -31.2109
lowerback 28.238 -3.71407 7.99238
upperback -0.0851157 -2.65071 -1.77011
thorax -15.5787 -1.90236 -5.25301
lowerneck 3.45312 1.3056 -2.2802
upperneck 7.12445 1.51528 1.15533
head 1.60166 0.662825 0.743211
rclavicle 5.73991e-015 1.59028e-015
rhumerus 52.2723 3.92882 -91.9641
rradius 8.37478
rwrist 53.0976
rhand -18.3868 6.17416
rfingers 7.12502
rthumb 7.89697 -23.6583
lclavicle 5.73991e-015 1.59028e-015
lhumerus 52.5733 5.18719 94.9313
lradius 11.158
lwrist -69.0614
lhand -16.194 -0.89128
lfingers 7.12502
lthumb 10.013 28.8505
rfemur 3.49082 7.80457 24.5375
rtibia 31.2103
rfoot -37.6089 -8.08557
rtoes -15.3797
lfemur -12.3643 -8.82821 -10.7092
ltibia 44.9743
lfoot -32.6514 -2.45733
ltoes -1.52393
148
root 0.126164 16.9117 -1.56101 17.1168 -83.9255 -29.3729
lowerback 27.6148 -3.61872 7.86151
upperback -0.119173 -2.62736 -1.84693
thorax -15.3197 -1.87842 -5.29715
lowerneck 3.45593 1.30503 -2.18244
upperneck 7.39821 1.51216 1.08436
head 1.68968 0.658117 0.706769
rclavicle -2.17483e-014 -4.37326e-015
rhumerus 52.194 3.82743 -91.9726
rradius 8.33908
rwrist 53.0557
rhand -18.2488 6.20426
rfingers 7.12502
rthumb 8.0302 -23.6232
lclavicle -2.17483e-014 -4.37326e-015
lhumerus 52.4027 4.96311 94.6286
lradius 11.2749
lwrist -68.6116
lhand -16.065 -1.23745
lfingers 7.12502
lthumb 10.1374 28.4983
rfemur 4.64187 8.7797 24.8004
rtibia 29.917
rfoot -38.0378 -9.10699
rtoes -15.5839
lfemur -11.9456 -9.07168 -10.8818
ltibia 44.3099
lfoot -32.6694 -2.00021
ltoes -1.17083
149
root 0.104748 16.9385 -1.57493 15.2521 -83.9823 -27.4228
lowerback 27.0513 -3.51667 7.7282
upperback -0.160528 -2.59173 -1.94297
thorax -15.0945 -1.85103 -5.36337
lowerneck 3.48667 1.28166 -2.0426
upperneck 7.61057 1.48149 0.986774
head 1.75431 0.641105 0.653973
rclavicle 1.83655e-014 3.02153e-014
rhumerus 52.15 3.72203 -92.0106
rradius 8.27571
rwrist 53.1108
rhand -18.1157 6.17126
rfingers 7.12502
rthumb 8.15872 -23.6512
lclavicle 1.83655e-014 3.02153e-014
lhumerus 52.2677 4.68264 94.2616
lradius 11.3946
lwrist -68.1025
lhand -15.8731 -1.59802
lfingers 7.12502
lthumb 10.3226 28.1286
rfemur 5.65448 9.87148 25.0819
rtibia 28.7582
rfoot -38.4565 -10.2539
rtoes -15.708
lfemur -11.5571 -9.16453 -11.0544
ltibia 43.7072
lfoot -32.6337 -1.49885
ltoes -0.693587
150
root 0.0863394 16.9611 -1.58795 13.2212 -84.0837 -25.3157
lowerback 26.5273 -3.38398 7.62869
upperback -0.186783 -2.50731 -2.07979
thorax -14.8648 -1.8058 -5.5099
lowerneck 3.58247 1.23518 -1.96322
upperneck 7.71479 1.41419 0.99121
head 1.77279 0.607315 0.641661
rclavicle 9.73734e-016 -1.03368e-014
rhumerus 52.1639 3.53031 -92.0452
rradius 8.202
rwrist 53.2612
rhand -18.0019 6.04677
rfingers 7.12502
rthumb 8.26853 -23.7714
lclavicle 9.73734e-016 -1.03368e-014
lhumerus 52.2415 4.46811 94.1714
lradius 11.4892
lwrist -67.9991
lhand -15.6305 -1.81962
lfingers 7.12502
lthumb 10.5566 27.8953
rfemur 6.506 11.0772 25.3673
rtibia 27.7859
rfoot -38.8421 -11.5954
rtoes -15.7421
lfemur -11.1938 -9.12408 -11.2505
ltibia 43.1657
lfoot -32.5989 -0.995747
ltoes -0.335495
151
root 0.070897 16.978 -1.59912 10.2859 -84.2308 -22.2847
lowerback 26.0548 -3.24254 7.35451
upperback -0.240723 -2.4539 -2.18898
thorax -14.6871 -1.76271 -5.51513
lowerneck 3.74649 1.2118 -1.8822
upperneck 7.77658 1.38027 0.923458
head 1.7657 0.588924 0.605678
rclavicle 2.37703e-014 7.95139e-015
rhumerus 52.1932 3.47753 -92.0677
rradius 8.11253
rwrist 53.4162
rhand -17.8667 5.89925
rfingers 7.12502
rthumb 8.39902 -23.9138
lclavicle 2.37703e-014 7.95139e-015
lhumerus 52.2228 4.37805 94.0707
lradius 11.5825
lwrist -67.9012
lhand -15.3637 -1.97536
lfingers 7.12502
lthumb 10.814 27.7262
rfemur 7.16971 12.2248 25.5084
rtibia 27.0127
rfoot -39.1819 -12.8932
rtoes -15.8104
lfemur -10.9003 -9.02276 -11.5439
ltibia 42.7176
lfoot -32.5807 -0.507827
ltoes 0.110051
152
root 0.0563659 16.9878 -1.60901 6.47382 -84.4339 -18.3886
lowerback 25.6154 -3.08206 7.00347
upperback -0.286436 -2.39884 -2.33146
thorax -14.5137 -1.71508 -5.5129
lowerneck 4.07287 1.20064 -1.83704
upperneck 7.67364 1.35721 0.923039
head 1.67729 0.577322 0.594282
rclavicle -3.59614e-014 -8.74653e-015
rhumerus 52.2441 3.45255 -92.124
rradius 8.00626
rwrist 53.6349
rhand -17.8129 5.68471
rfingers 7.12502
rthumb 8.45088 -24.1262
lclavicle -3.59614e-014 -8.74653e-015
lhumerus 52.2485 4.22132 93.7966
lradius 11.6587
lwrist -67.6085
lhand -15.0701 -2.02155
lfingers 7.12502
lthumb 11.0971 27.6651
rfemur 7.68356 13.2408 25.4828
rtibia 26.4227
rfoot -39.4602 -13.9635
rtoes -15.8012
lfemur -10.6455 -8.88581 -11.9315
ltibia 42.3906
lfoot -32.6146 0.102253
ltoes 0.566808
153
root 0.0451623 16.9887 -1.61612 3.90524 -84.6493 -15.7822
lowerback 25.3287 -2.94061 6.80498
upperback -0.057079 -2.29371 -2.27656
thorax -14.7364 -1.70027 -5.70949
lowerneck 4.43398 1.18046 -1.8252
upperneck 7.53347 1.3218 0.912852
head 1.57169 0.558734 0.585016
rclavicle 1.2101e-014 -1.11319e-014
rhumerus 52.2961 3.43001 -92.1581
rradius 7.905
rwrist 53.8237
rhand -17.7384 5.46908
rfingers 7.12502
rthumb 8.52281 -24.3389
lclavicle 1.2101e-014 -1.11319e-014
lhumerus 52.3226 4.23991 93.8216
lradius 11.6666
lwrist -67.6751
lhand -14.8451 -1.93534
lfingers 7.12502
lthumb 11.3141 27.7395
rfemur 8.07677 13.9361 25.466
rtibia 25.9827
rfoot -39.5861 -14.6186
rtoes -15.6564
lfemur -10.4319 -8.69056 -12.1675
ltibia 42.2016
lfoot -32.6832 0.793089
ltoes 0.845819
154
root 0.0393587 16.9853 -1.62112 3.90117 -84.8795 -15.7818
lowerback 25.109 -2.83359 6.87312
upperback -0.12493 -2.15146 -2.33072
thorax -14.6771 -1.6438 -5.86947
lowerneck 4.80371 1.16289 -1.8364
upperneck 7.34703 1.28696 0.971361
head 1.45021 0.541412 0.60079
rclavicle 9.59136e-015 1.11319e-014
rhumerus 52.3387 3.40453 -92.2192
rradius 7.8627
rwrist 53.9585
rhand -17.6052 5.22947
rfingers 7.12502
rthumb 8.65137 -24.5733
lclavicle 9.59136e-015 1.11319e-014
lhumerus 52.368 3.92572 93.2899
lradius 11.6975
lwrist -67.029
lhand -14.5981 -1.73925
lfingers 7.12502
lthumb 11.5523 27.9224
rfemur 8.33111 14.2016 25.5231
rtibia 25.6483
rfoot -39.497 -14.8113
rtoes -15.4073
lfemur -10.2699 -8.46536 -12.1309
ltibia 42.1322
lfoot -32.7975 1.50727
ltoes 0.846034
155
root 0.0480872 16.985 -1.61732 6.28608 -85.3827 -18.1925
lowerback 25.1319 -2.68831 7.10936
upperback -0.23135 -1.8848 -2.34062
thorax -14.7844 -1.54939 -6.12211
lowerneck 5.14438 1.16652 -1.86659
upperneck 7.16637 1.28206 1.00101
head 1.33586 0.538168 0.611068
rclavicle 1.14922e-014 -3.18055e-015
rhumerus 52.3942 3.4039 -92.252
rradius 7.78605
rwrist 54.0492
rhand -17.5706 5.06584
rfingers 7.12502
rthumb 8.68477 -24.7355
lclavicle 1.14922e-014 -3.18055e-015
lhumerus 52.4031 3.45733 92.4157
lradius 11.7008
lwrist -65.8975
lhand -14.4218 -1.50776
lfingers 7.12502
lthumb 11.7224 28.1442
rfemur 8.37507 14.0434 25.4366
rtibia 25.3749
rfoot -38.8367 -14.5476
rtoes -15.2671
lfemur -10.1083 -8.14964 -11.9684
ltibia 42.1475
lfoot -32.9984 2.36557
ltoes 0.65095
156
root 0.0582326 16.9846 -1.61152 9.87555 -85.9277 -21.8425
lowerback 25.1796 -2.52411 7.37313
upperback -0.616082 -1.59228 -2.50872
thorax -14.5749 -1.39775 -6.22945
lowerneck 5.51595 1.16075 -1.93881
upperneck 6.93279 1.26136 1.07308
head 1.20039 0.52693 0.641087
rclavicle 1.62258e-014 -6.75868e-015
rhumerus 52.4404 3.416 -92.2933
rradius 7.72367
rwrist 54.0886
rhand -17.5496 4.87021
rfingers 7.12502
rthumb 8.70501 -24.9303
lclavicle 1.62258e-014 -6.75868e-015
lhumerus 52.4681 3.08967 91.7494
lradius 11.6628
lwrist -64.9626
lhand -14.4097 -1.22711
lfingers 7.12502
lthumb 11.734 28.4242
rfemur 8.33239 13.6274 25.2584
rtibia 25.1755
rfoot -37.874 -14.1459
rtoes -15.0006
lfemur -9.92357 -7.7245 -11.7739
ltibia 42.1962
lfoot -33.1798 3.15185
ltoes 0.104724
